<svg width="1440" height="725" viewBox="0 0 1440 725" fill="none" xmlns="http://www.w3.org/2000/svg">
<g clip-path="url(#clip0)">
<rect width="1440" height="725" fill="#EAE8DB"/>
<rect y="541" width="1440" height="184" fill="#8FAF4A"/>
<path d="M709.724 563.078C653.278 537.691 626.509 588.689 536.903 589.606C447.298 590.523 444.755 618.392 499.371 637.657C553.988 656.921 648.627 679.701 681.794 696.719C689.582 700.715 703.53 702.696 720 702.968V662.5V627V607V566.826C716.804 565.956 713.404 564.733 709.724 563.078Z" fill="#439884"/>
<path d="M720 614.442C720 620.574 720 625.239 720 628.652C720 590.076 720 546.27 720 614.442Z" fill="#439884"/>
<path d="M720 614.442C720 620.574 720 625.239 720 628.652C720 629.317 720 629.98 720 630.642V566.826C750.616 575.158 762.459 551.213 821.735 565.477C843.041 570.603 852.677 575.471 863.343 589.578C890.272 625.195 810.974 629.072 835.413 661.567C854.113 686.432 773.669 703.686 720 702.803V680.862V634.815V632.394C720 631.369 720 630.127 720 628.652C720 590.076 720 546.27 720 614.442Z" fill="#439884"/>
<path d="M25.3862 192.436C33.6375 172.871 61.3628 172.871 69.614 192.436L213.946 534.674C220.618 550.495 209.002 568 191.832 568H-0.155273L-0.155243 498.5L-0.155273 253L25.3862 192.436Z" fill="#C68658"/>
<path d="M150.324 390.526C158.821 371.679 185.584 371.679 194.082 390.526L288.137 599.135C295.299 615.019 283.682 633 266.258 633H78.1475C60.7242 633 49.1071 615.019 56.2685 599.135L150.324 390.526Z" fill="#A47F64"/>
<path d="M150.324 390.526C158.821 371.679 185.584 371.679 194.082 390.526L288.137 599.135C295.299 615.019 283.682 633 266.258 633H78.1475C60.7242 633 49.1071 615.019 56.2685 599.135L150.324 390.526Z" fill="#A47F64"/>
<circle cx="91" cy="90" r="50" fill="#EDB561"/>
<path d="M1351.66 311.78C1361.28 299.641 1379.7 299.655 1389.3 311.81L1440 376V494.5V613H1162.64C1142.56 613 1131.36 589.828 1143.82 574.096L1351.66 311.78Z" fill="#816969"/>
<path d="M1357.61 467.278C1365.62 447.071 1394.22 447.071 1402.23 467.278L1440 562.548V634.658V658H1317.33C1300.38 658 1288.78 640.91 1295.02 625.155L1357.61 467.278Z" fill="#8F887C"/>
</g>
<defs>
<clipPath id="clip0">
<rect width="1440" height="725" fill="white"/>
</clipPath>
</defs>
</svg>
