<svg width="1440" height="725" viewBox="0 0 1440 725" fill="none" xmlns="http://www.w3.org/2000/svg">
<g clip-path="url(#clip0)">
<rect width="1440" height="725" fill="#EAE8DB"/>
<rect y="541" width="1440" height="184" fill="#778A50"/>
<path d="M709.724 563.078C653.278 537.691 626.509 588.689 536.903 589.606C447.298 590.523 444.755 618.392 499.371 637.657C553.988 656.921 648.627 679.701 681.794 696.719C689.582 700.715 703.53 702.696 720 702.968V662.5V627V607V566.826C716.804 565.956 713.404 564.733 709.724 563.078Z" fill="#439884"/>
<path d="M141 90C141 117.614 118.614 140 91 140C63.3858 140 41 117.614 41 90C41 62.3858 63.3858 40 91 40C118.614 40 141 62.3858 141 90Z" fill="#EDB561"/>
<path d="M720 614.672C720 620.811 720 625.482 720 628.899C720 590.276 720 546.417 720 614.672Z" fill="#439884"/>
<path d="M720 614.672C720 620.811 720 625.482 720 628.899C720 629.565 720 630.229 720 630.891V566.999C750.617 575.341 762.46 551.367 821.735 565.647C843.042 570.78 852.677 575.654 863.343 589.778C890.272 625.438 810.974 629.32 835.413 661.854C854.113 686.749 773.67 704.024 720 703.14V681.172V635.069V632.646C720 631.62 720 630.377 720 628.899C720 590.276 720 546.417 720 614.672Z" fill="#439884"/>
<path d="M1351.66 311.78C1361.28 299.641 1379.7 299.655 1389.3 311.81L1440 376V494.5V613H1162.64C1142.56 613 1131.36 589.828 1143.82 574.096L1351.66 311.78Z" fill="#816969"/>
<path d="M1357.61 467.278C1365.62 447.071 1394.22 447.071 1402.23 467.278L1440 562.548V634.658V658H1317.33C1300.38 658 1288.78 640.91 1295.02 625.155L1357.61 467.278Z" fill="#8F887C"/>
<path d="M25.3862 192.436C33.6375 172.871 61.3628 172.871 69.614 192.436L213.946 534.674C220.618 550.495 209.002 568 191.832 568H-0.155273L-0.155243 498.5L-0.155273 253L25.3862 192.436Z" fill="#C68658"/>
<path d="M150.324 390.526C158.821 371.679 185.584 371.679 194.082 390.526L288.137 599.135C295.299 615.019 283.682 633 266.258 633H78.1475C60.7242 633 49.1071 615.019 56.2685 599.135L150.324 390.526Z" fill="#A47F64"/>
<rect x="339" y="605" width="54" height="31" fill="#C4C4C4"/>
<rect x="436" y="508" width="66" height="66" fill="#C4C4C4"/>
<rect x="444" y="615" width="9" height="88" fill="#C4C4C4"/>
<path d="M295.5 658H361.5V704H295.5V658Z" fill="#C4C4C4"/>
<rect x="253" y="586" width="15" height="88" fill="#C4C4C4"/>
<path d="M323 545H356V593H323V545Z" fill="#C4C4C4"/>
<rect x="285" y="429" width="16" height="132" fill="#C4C4C4"/>
<rect x="369" y="490" width="12" height="66" fill="#C4C4C4"/>
<rect x="406" y="468" width="11" height="136" fill="#C4C4C4"/>
<rect x="948" y="484" width="13" height="73" fill="#C4C4C4"/>
<path d="M936 549H926V625H936V549Z" fill="#C4C4C4"/>
<rect x="981" y="582" width="12" height="109" fill="#C4C4C4"/>
<rect x="1067" y="465" width="16" height="109" fill="#C4C4C4"/>
<rect x="1006" y="453" width="21" height="133" fill="#C4C4C4"/>
<rect x="1027" y="595" width="57" height="60" fill="#C4C4C4"/>
<rect x="896" y="637" width="71" height="27" fill="#C4C4C4"/>
<rect x="860" y="527" width="56" height="20" fill="#C4C4C4"/>
<rect x="1113" y="587" width="67" height="28" fill="#C4C4C4"/>
<path d="M673 586.525V593.525" stroke="black"/>
<path d="M491 634.525C491 634.525 525.163 526.709 580.5 524.525C623.954 522.811 673 586.525 673 586.525C673 586.525 714.526 510.604 760 509.025C804.61 507.476 852 578.025 852 578.025" stroke="black"/>
<path d="M496.5 636.025L492 634.525L673 586.525L852 578.025L855 581.025C784.901 584.149 745.099 585.901 675 589.025L496.5 636.025Z" fill="#545050" stroke="black"/>
<path d="M496.5 636.025C496.5 636.025 530.663 528.734 586 526.551C629.454 524.836 675 588.525 675 588.525C675 588.525 720.026 512.63 765.5 511.051C810.11 509.502 855 581.025 855 581.025" stroke="black"/>
<path d="M578.5 525.025V611.525" stroke="black"/>
<path d="M581.5 526.784V614.025" stroke="black"/>
<path d="M675 589.025V596.025" stroke="black"/>
<path d="M758.5 509.525V582.025" stroke="black"/>
<path d="M761 511.525V585.025" stroke="black"/>
</g>
<defs>
<clipPath id="clip0">
<rect width="1440" height="725" fill="white"/>
</clipPath>
</defs>
</svg>
